<svg width="220" height="58" viewBox="0 0 220 58" fill="none" xmlns="http://www.w3.org/2000/svg">
<rect x="2" y="2" width="216" height="54" stroke="black" stroke-width="4"/>
<rect x="9.5" y="7.5" width="104" height="43" fill="#E7700D" stroke="black"/>
<mask id="path-3-outside-1_1_2" maskUnits="userSpaceOnUse" x="31" y="19" width="61" height="23" fill="black">
<rect fill="white" x="31" y="19" width="61" height="23"/>
<path d="M38.4531 25.376C39.6211 25.376 40.6771 25.648 41.6211 26.192C42.5651 26.72 43.3011 27.472 43.8291 28.448C44.3731 29.408 44.6451 30.504 44.6451 31.736C44.6451 32.968 44.3731 34.064 43.8291 35.024C43.3011 35.984 42.5651 36.736 41.6211 37.28C40.6771 37.824 39.6211 38.096 38.4531 38.096C37.3331 38.096 36.3171 37.832 35.4051 37.304C34.5091 36.76 33.8131 36.008 33.3171 35.048V38H32.1651V20.192H33.3651V28.328C33.8611 27.4 34.5571 26.68 35.4531 26.168C36.3491 25.64 37.3491 25.376 38.4531 25.376ZM38.3811 37.016C39.3411 37.016 40.2051 36.792 40.9731 36.344C41.7411 35.896 42.3411 35.272 42.7731 34.472C43.2211 33.672 43.4451 32.76 43.4451 31.736C43.4451 30.712 43.2211 29.8 42.7731 29C42.3411 28.2 41.7411 27.576 40.9731 27.128C40.2051 26.68 39.3411 26.456 38.3811 26.456C37.4211 26.456 36.5571 26.68 35.7891 27.128C35.0371 27.576 34.4371 28.2 33.9891 29C33.5571 29.8 33.3411 30.712 33.3411 31.736C33.3411 32.76 33.5571 33.672 33.9891 34.472C34.4371 35.272 35.0371 35.896 35.7891 36.344C36.5571 36.792 37.4211 37.016 38.3811 37.016ZM61.9444 21.2V33.224C61.9444 35.592 61.3444 37.392 60.1444 38.624C58.9444 39.872 57.2724 40.496 55.1284 40.496C53.7844 40.496 52.5764 40.264 51.5044 39.8C50.4324 39.352 49.5364 38.704 48.8164 37.856L49.4404 36.896C50.8324 38.544 52.7364 39.368 55.1524 39.368C56.9604 39.368 58.3364 38.856 59.2804 37.832C60.2404 36.808 60.7204 35.28 60.7204 33.248V30.464C60.2084 31.552 59.4644 32.368 58.4884 32.912C57.5124 33.456 56.3604 33.728 55.0324 33.728C52.9684 33.728 51.3604 33.136 50.2084 31.952C49.0564 30.768 48.4804 29.072 48.4804 26.864V21.2H49.7044V26.816C49.7044 28.704 50.1764 30.144 51.1204 31.136C52.0644 32.112 53.4004 32.6 55.1284 32.6C56.9044 32.6 58.2804 32.08 59.2564 31.04C60.2324 30 60.7204 28.448 60.7204 26.384V21.2H61.9444ZM77.8585 23.864C76.1785 22.872 74.2825 22.32 72.1705 22.208V38H70.9225V22.208C68.8905 22.288 66.9945 22.84 65.2345 23.864L64.7545 22.88C66.8025 21.68 69.0585 21.08 71.5225 21.08C74.0185 21.08 76.2905 21.68 78.3385 22.88L77.8585 23.864ZM84.7386 37.016C85.5546 37.016 86.3066 36.872 86.9946 36.584C87.6986 36.28 88.2826 35.84 88.7466 35.264L89.4426 36.056C88.8986 36.728 88.2186 37.24 87.4026 37.592C86.5866 37.928 85.6906 38.096 84.7146 38.096C83.4666 38.096 82.3466 37.824 81.3546 37.28C80.3786 36.736 79.6106 35.984 79.0506 35.024C78.5066 34.064 78.2346 32.968 78.2346 31.736C78.2346 30.504 78.4906 29.408 79.0026 28.448C79.5306 27.488 80.2586 26.736 81.1866 26.192C82.1146 25.648 83.1626 25.376 84.3306 25.376C85.4186 25.376 86.3946 25.632 87.2586 26.144C88.1386 26.64 88.8346 27.336 89.3466 28.232C89.8746 29.112 90.1626 30.104 90.2106 31.208L79.6266 33.272C79.9306 34.424 80.5386 35.336 81.4506 36.008C82.3626 36.68 83.4586 37.016 84.7386 37.016ZM84.3306 26.432C83.3866 26.432 82.5386 26.656 81.7866 27.104C81.0346 27.536 80.4506 28.152 80.0346 28.952C79.6186 29.736 79.4106 30.632 79.4106 31.64C79.4106 31.816 79.4266 32.064 79.4586 32.384L89.0106 30.512C88.8986 29.76 88.6346 29.072 88.2186 28.448C87.8026 27.824 87.2586 27.336 86.5866 26.984C85.9146 26.616 85.1626 26.432 84.3306 26.432Z"/>
</mask>
<path d="M38.4531 25.376C39.6211 25.376 40.6771 25.648 41.6211 26.192C42.5651 26.72 43.3011 27.472 43.8291 28.448C44.3731 29.408 44.6451 30.504 44.6451 31.736C44.6451 32.968 44.3731 34.064 43.8291 35.024C43.3011 35.984 42.5651 36.736 41.6211 37.28C40.6771 37.824 39.6211 38.096 38.4531 38.096C37.3331 38.096 36.3171 37.832 35.4051 37.304C34.5091 36.76 33.8131 36.008 33.3171 35.048V38H32.1651V20.192H33.3651V28.328C33.8611 27.4 34.5571 26.68 35.4531 26.168C36.3491 25.64 37.3491 25.376 38.4531 25.376ZM38.3811 37.016C39.3411 37.016 40.2051 36.792 40.9731 36.344C41.7411 35.896 42.3411 35.272 42.7731 34.472C43.2211 33.672 43.4451 32.76 43.4451 31.736C43.4451 30.712 43.2211 29.8 42.7731 29C42.3411 28.2 41.7411 27.576 40.9731 27.128C40.2051 26.68 39.3411 26.456 38.3811 26.456C37.4211 26.456 36.5571 26.68 35.7891 27.128C35.0371 27.576 34.4371 28.2 33.9891 29C33.5571 29.8 33.3411 30.712 33.3411 31.736C33.3411 32.76 33.5571 33.672 33.9891 34.472C34.4371 35.272 35.0371 35.896 35.7891 36.344C36.5571 36.792 37.4211 37.016 38.3811 37.016ZM61.9444 21.2V33.224C61.9444 35.592 61.3444 37.392 60.1444 38.624C58.9444 39.872 57.2724 40.496 55.1284 40.496C53.7844 40.496 52.5764 40.264 51.5044 39.8C50.4324 39.352 49.5364 38.704 48.8164 37.856L49.4404 36.896C50.8324 38.544 52.7364 39.368 55.1524 39.368C56.9604 39.368 58.3364 38.856 59.2804 37.832C60.2404 36.808 60.7204 35.28 60.7204 33.248V30.464C60.2084 31.552 59.4644 32.368 58.4884 32.912C57.5124 33.456 56.3604 33.728 55.0324 33.728C52.9684 33.728 51.3604 33.136 50.2084 31.952C49.0564 30.768 48.4804 29.072 48.4804 26.864V21.2H49.7044V26.816C49.7044 28.704 50.1764 30.144 51.1204 31.136C52.0644 32.112 53.4004 32.6 55.1284 32.6C56.9044 32.6 58.2804 32.08 59.2564 31.04C60.2324 30 60.7204 28.448 60.7204 26.384V21.2H61.9444ZM77.8585 23.864C76.1785 22.872 74.2825 22.32 72.1705 22.208V38H70.9225V22.208C68.8905 22.288 66.9945 22.84 65.2345 23.864L64.7545 22.88C66.8025 21.68 69.0585 21.08 71.5225 21.08C74.0185 21.08 76.2905 21.68 78.3385 22.88L77.8585 23.864ZM84.7386 37.016C85.5546 37.016 86.3066 36.872 86.9946 36.584C87.6986 36.28 88.2826 35.84 88.7466 35.264L89.4426 36.056C88.8986 36.728 88.2186 37.24 87.4026 37.592C86.5866 37.928 85.6906 38.096 84.7146 38.096C83.4666 38.096 82.3466 37.824 81.3546 37.28C80.3786 36.736 79.6106 35.984 79.0506 35.024C78.5066 34.064 78.2346 32.968 78.2346 31.736C78.2346 30.504 78.4906 29.408 79.0026 28.448C79.5306 27.488 80.2586 26.736 81.1866 26.192C82.1146 25.648 83.1626 25.376 84.3306 25.376C85.4186 25.376 86.3946 25.632 87.2586 26.144C88.1386 26.64 88.8346 27.336 89.3466 28.232C89.8746 29.112 90.1626 30.104 90.2106 31.208L79.6266 33.272C79.9306 34.424 80.5386 35.336 81.4506 36.008C82.3626 36.68 83.4586 37.016 84.7386 37.016ZM84.3306 26.432C83.3866 26.432 82.5386 26.656 81.7866 27.104C81.0346 27.536 80.4506 28.152 80.0346 28.952C79.6186 29.736 79.4106 30.632 79.4106 31.64C79.4106 31.816 79.4266 32.064 79.4586 32.384L89.0106 30.512C88.8986 29.76 88.6346 29.072 88.2186 28.448C87.8026 27.824 87.2586 27.336 86.5866 26.984C85.9146 26.616 85.1626 26.432 84.3306 26.432Z" fill="black"/>
<path d="M41.6211 26.192L41.1218 27.0585L41.1329 27.0648L41.6211 26.192ZM43.8291 28.448L42.9496 28.9238L42.9542 28.9325L42.9591 28.941L43.8291 28.448ZM43.8291 35.024L42.959 34.5309L42.9529 34.5421L43.8291 35.024ZM41.6211 37.28L41.1218 36.4136L41.1218 36.4136L41.6211 37.28ZM35.4051 37.304L34.8861 38.1588L34.895 38.1642L34.9041 38.1694L35.4051 37.304ZM33.3171 35.048L34.2055 34.589L32.3171 35.048H33.3171ZM33.3171 38V39H34.3171V38H33.3171ZM32.1651 38H31.1651V39H32.1651V38ZM32.1651 20.192V19.192H31.1651V20.192H32.1651ZM33.3651 20.192H34.3651V19.192H33.3651V20.192ZM33.3651 28.328H32.3651L34.247 28.7994L33.3651 28.328ZM35.4531 26.168L35.9493 27.0363L35.9608 27.0295L35.4531 26.168ZM40.9731 36.344L40.4692 35.4802L40.4692 35.4802L40.9731 36.344ZM42.7731 34.472L41.9006 33.9834L41.8968 33.9901L41.8932 33.9969L42.7731 34.472ZM42.7731 29L41.8932 29.4751L41.8968 29.4819L41.9006 29.4886L42.7731 29ZM40.9731 27.128L40.4692 27.9918L40.4692 27.9918L40.9731 27.128ZM35.7891 27.128L35.2852 26.2642L35.2773 26.2689L35.7891 27.128ZM33.9891 29L33.1166 28.5114L33.1128 28.5181L33.1092 28.5249L33.9891 29ZM33.9891 34.472L33.1092 34.9471L33.1128 34.9539L33.1166 34.9606L33.9891 34.472ZM35.7891 36.344L35.2773 37.2031L35.2852 37.2078L35.7891 36.344ZM38.4531 26.376C39.4589 26.376 40.3406 26.6082 41.1218 27.0584L42.1204 25.3256C41.0136 24.6878 39.7833 24.376 38.4531 24.376V26.376ZM41.1329 27.0648C41.907 27.4977 42.5093 28.11 42.9496 28.9238L44.7086 27.9722C44.0929 26.834 43.2232 25.9423 42.1092 25.3192L41.1329 27.0648ZM42.9591 28.941C43.4083 29.7337 43.6451 30.6562 43.6451 31.736H45.6451C45.6451 30.3518 45.3379 29.0823 44.6991 27.955L42.9591 28.941ZM43.6451 31.736C43.6451 32.8158 43.4083 33.7383 42.9591 34.531L44.6991 35.517C45.3379 34.3897 45.6451 33.1202 45.6451 31.736H43.6451ZM42.9529 34.5421C42.5125 35.3428 41.9064 35.9614 41.1218 36.4136L42.1204 38.1464C43.2238 37.5106 44.0897 36.6252 44.7053 35.5059L42.9529 34.5421ZM41.1218 36.4136C40.3406 36.8638 39.4589 37.096 38.4531 37.096V39.096C39.7833 39.096 41.0136 38.7842 42.1204 38.1464L41.1218 36.4136ZM38.4531 37.096C37.4976 37.096 36.6562 36.8728 35.9061 36.4386L34.9041 38.1694C35.9779 38.7912 37.1686 39.096 38.4531 39.096V37.096ZM35.9241 36.4492C35.1903 36.0037 34.6198 35.3909 34.2055 34.589L32.4287 35.507C33.0063 36.6251 33.8279 37.5163 34.8861 38.1588L35.9241 36.4492ZM32.3171 35.048V38H34.3171V35.048H32.3171ZM33.3171 37H32.1651V39H33.3171V37ZM33.1651 38V20.192H31.1651V38H33.1651ZM32.1651 21.192H33.3651V19.192H32.1651V21.192ZM32.3651 20.192V28.328H34.3651V20.192H32.3651ZM34.247 28.7994C34.6562 28.0339 35.22 27.453 35.9492 27.0362L34.957 25.2998C33.8942 25.907 33.066 26.7661 32.4832 27.8566L34.247 28.7994ZM35.9608 27.0295C36.6934 26.5978 37.5162 26.376 38.4531 26.376V24.376C37.182 24.376 36.0048 24.6822 34.9454 25.3065L35.9608 27.0295ZM38.3811 38.016C39.5036 38.016 40.5439 37.7521 41.477 37.2078L40.4692 35.4802C39.8663 35.8319 39.1786 36.016 38.3811 36.016V38.016ZM41.477 37.2078C42.4074 36.6651 43.1358 35.9049 43.653 34.9471L41.8932 33.9969C41.5464 34.6391 41.0748 35.1269 40.4692 35.4802L41.477 37.2078ZM43.6456 34.9606C44.1866 33.9945 44.4451 32.9107 44.4451 31.736H42.4451C42.4451 32.6093 42.2556 33.3495 41.9006 33.9834L43.6456 34.9606ZM44.4451 31.736C44.4451 30.5613 44.1866 29.4775 43.6456 28.5114L41.9006 29.4886C42.2556 30.1225 42.4451 30.8627 42.4451 31.736H44.4451ZM43.653 28.5249C43.1358 27.5671 42.4074 26.8069 41.477 26.2642L40.4692 27.9918C41.0748 28.3451 41.5464 28.8329 41.8932 29.4751L43.653 28.5249ZM41.477 26.2642C40.5439 25.7199 39.5036 25.456 38.3811 25.456V27.456C39.1786 27.456 39.8663 27.6401 40.4692 27.9918L41.477 26.2642ZM38.3811 25.456C37.2586 25.456 36.2183 25.7199 35.2852 26.2642L36.293 27.9918C36.8959 27.6401 37.5836 27.456 38.3811 27.456V25.456ZM35.2773 26.2689C34.3674 26.811 33.646 27.566 33.1166 28.5114L34.8616 29.4886C35.2282 28.834 35.7068 28.341 36.3009 27.9871L35.2773 26.2689ZM33.1092 28.5249C32.5888 29.4884 32.3411 30.5674 32.3411 31.736H34.3411C34.3411 30.8566 34.5253 30.1116 34.869 29.4751L33.1092 28.5249ZM32.3411 31.736C32.3411 32.9046 32.5888 33.9836 33.1092 34.9471L34.869 33.9969C34.5253 33.3604 34.3411 32.6154 34.3411 31.736H32.3411ZM33.1166 34.9606C33.646 35.906 34.3674 36.661 35.2773 37.2031L36.3009 35.4849C35.7068 35.131 35.2282 34.638 34.8616 33.9834L33.1166 34.9606ZM35.2852 37.2078C36.2183 37.7521 37.2586 38.016 38.3811 38.016V36.016C37.5836 36.016 36.8959 35.8319 36.293 35.4802L35.2852 37.2078ZM61.9444 21.2H62.9444V20.2H61.9444V21.2ZM60.1444 38.624L59.428 37.9262L59.4236 37.9309L60.1444 38.624ZM51.5044 39.8L51.9017 38.8822L51.89 38.8773L51.5044 39.8ZM48.8164 37.856L47.978 37.311L47.5721 37.9355L48.0541 38.5032L48.8164 37.856ZM49.4404 36.896L50.2044 36.2507L49.3357 35.2223L48.602 36.351L49.4404 36.896ZM59.2804 37.832L58.5508 37.148L58.5452 37.1542L59.2804 37.832ZM60.7204 30.464H61.7204L59.8156 30.0382L60.7204 30.464ZM58.4884 32.912L58.0015 32.0385L58.0015 32.0385L58.4884 32.912ZM50.2084 31.952L49.4917 32.6494L49.4917 32.6494L50.2084 31.952ZM48.4804 21.2V20.2H47.4804V21.2H48.4804ZM49.7044 21.2H50.7044V20.2H49.7044V21.2ZM51.1204 31.136L50.396 31.8254L50.4016 31.8312L51.1204 31.136ZM59.2564 31.04L58.5272 30.3557L58.5272 30.3557L59.2564 31.04ZM60.7204 21.2V20.2H59.7204V21.2H60.7204ZM60.9444 21.2V33.224H62.9444V21.2H60.9444ZM60.9444 33.224C60.9444 35.4313 60.3867 36.9421 59.4281 37.9263L60.8608 39.3217C62.3021 37.8419 62.9444 35.7527 62.9444 33.224H60.9444ZM59.4236 37.9309C58.4552 38.938 57.0695 39.496 55.1284 39.496V41.496C57.4753 41.496 59.4336 40.806 60.8652 39.3171L59.4236 37.9309ZM55.1284 39.496C53.9006 39.496 52.8307 39.2844 51.9016 38.8823L51.1072 40.7177C52.3221 41.2436 53.6682 41.496 55.1284 41.496V39.496ZM51.89 38.8773C50.9569 38.4874 50.192 37.9311 49.5787 37.2088L48.0541 38.5032C48.8808 39.4769 49.9079 40.2166 51.1188 40.7227L51.89 38.8773ZM49.6548 38.401L50.2789 37.441L48.602 36.351L47.978 37.311L49.6548 38.401ZM48.6765 37.5413C50.2827 39.4429 52.4817 40.368 55.1524 40.368V38.368C52.9912 38.368 51.3821 37.6451 50.2044 36.2507L48.6765 37.5413ZM55.1524 40.368C57.1517 40.368 58.8299 39.796 60.0157 38.5098L58.5452 37.1542C57.8429 37.916 56.7691 38.368 55.1524 38.368V40.368ZM60.0099 38.5159C61.208 37.238 61.7204 35.4212 61.7204 33.248H59.7204C59.7204 35.1388 59.2728 36.378 58.5509 37.1481L60.0099 38.5159ZM61.7204 33.248V30.464H59.7204V33.248H61.7204ZM59.8156 30.0382C59.3855 30.9522 58.7807 31.6043 58.0015 32.0385L58.9753 33.7855C60.1481 33.1317 61.0313 32.1518 61.6252 30.8898L59.8156 30.0382ZM58.0015 32.0385C57.2002 32.4852 56.2221 32.728 55.0324 32.728V34.728C56.4987 34.728 57.8246 34.4268 58.9753 33.7855L58.0015 32.0385ZM55.0324 32.728C53.1669 32.728 51.8443 32.1993 50.9251 31.2546L49.4917 32.6494C50.8765 34.0727 52.7699 34.728 55.0324 34.728V32.728ZM50.9251 31.2546C50.0092 30.3133 49.4804 28.9016 49.4804 26.864H47.4804C47.4804 29.2424 48.1036 31.2227 49.4917 32.6494L50.9251 31.2546ZM49.4804 26.864V21.2H47.4804V26.864H49.4804ZM48.4804 22.2H49.7044V20.2H48.4804V22.2ZM48.7044 21.2V26.816H50.7044V21.2H48.7044ZM48.7044 26.816C48.7044 28.8622 49.2172 30.5866 50.396 31.8254L51.8448 30.4466C51.1356 29.7014 50.7044 28.5458 50.7044 26.816H48.7044ZM50.4016 31.8312C51.5821 33.0517 53.2074 33.6 55.1284 33.6V31.6C53.5934 31.6 52.5467 31.1723 51.8392 30.4408L50.4016 31.8312ZM55.1284 33.6C57.1083 33.6 58.7762 33.013 59.9856 31.7243L58.5272 30.3557C57.7846 31.147 56.7005 31.6 55.1284 31.6V33.6ZM59.9856 31.7243C61.1999 30.4304 61.7204 28.5894 61.7204 26.384H59.7204C59.7204 28.3066 59.2649 29.5696 58.5272 30.3557L59.9856 31.7243ZM61.7204 26.384V21.2H59.7204V26.384H61.7204ZM60.7204 22.2H61.9444V20.2H60.7204V22.2ZM77.8585 23.864L77.35 24.7251L78.2825 25.2757L78.7572 24.3024L77.8585 23.864ZM72.1705 22.208L72.2234 21.2094L71.1705 21.1536V22.208H72.1705ZM72.1705 38V39H73.1705V38H72.1705ZM70.9225 38H69.9225V39H70.9225V38ZM70.9225 22.208H71.9225V21.1679L70.8831 21.2088L70.9225 22.208ZM65.2345 23.864L64.3357 24.3024L64.8074 25.2694L65.7374 24.7283L65.2345 23.864ZM64.7545 22.88L64.2489 22.0172L63.4495 22.4856L63.8557 23.3184L64.7545 22.88ZM78.3385 22.88L79.2372 23.3184L79.6435 22.4856L78.844 22.0172L78.3385 22.88ZM78.3669 23.0029C76.5369 21.9223 74.4823 21.3292 72.2234 21.2094L72.1175 23.2066C74.0826 23.3108 75.82 23.8217 77.35 24.7251L78.3669 23.0029ZM71.1705 22.208V38H73.1705V22.208H71.1705ZM72.1705 37H70.9225V39H72.1705V37ZM71.9225 38V22.208H69.9225V38H71.9225ZM70.8831 21.2088C68.6877 21.2952 66.6326 21.8936 64.7316 22.9997L65.7374 24.7283C67.3564 23.7864 69.0932 23.2808 70.9618 23.2072L70.8831 21.2088ZM66.1332 23.4256L65.6532 22.4416L63.8557 23.3184L64.3357 24.3024L66.1332 23.4256ZM65.26 23.7428C67.1487 22.6361 69.2291 22.08 71.5225 22.08V20.08C68.8878 20.08 66.4562 20.7239 64.2489 22.0172L65.26 23.7428ZM71.5225 22.08C73.8503 22.08 75.9463 22.6373 77.8329 23.7428L78.844 22.0172C76.6347 20.7227 74.1866 20.08 71.5225 20.08V22.08ZM77.4397 22.4416L76.9597 23.4256L78.7572 24.3024L79.2372 23.3184L77.4397 22.4416ZM86.9946 36.584L87.3808 37.5065L87.391 37.5021L86.9946 36.584ZM88.7466 35.264L89.4978 34.6039L88.7133 33.7112L87.9678 34.6367L88.7466 35.264ZM89.4426 36.056L90.2198 36.6852L90.7506 36.0295L90.1938 35.3959L89.4426 36.056ZM87.4026 37.592L87.7833 38.5167L87.791 38.5135L87.7987 38.5102L87.4026 37.592ZM81.3546 37.28L80.8677 38.1535L80.8738 38.1568L81.3546 37.28ZM79.0506 35.024L78.1805 35.5171L78.1868 35.5279L79.0506 35.024ZM79.0026 28.448L78.1263 27.966L78.1202 27.9774L79.0026 28.448ZM81.1866 26.192L81.6923 27.0547L81.6923 27.0547L81.1866 26.192ZM87.2586 26.144L86.7488 27.0043L86.7581 27.0098L86.7676 27.0152L87.2586 26.144ZM89.3466 28.232L88.4784 28.7281L88.4836 28.7374L88.4891 28.7465L89.3466 28.232ZM90.2106 31.208L90.402 32.1895L91.247 32.0247L91.2097 31.1646L90.2106 31.208ZM79.6266 33.272L79.4352 32.2905L78.3873 32.4948L78.6597 33.5272L79.6266 33.272ZM81.4506 36.008L82.0438 35.2029L82.0438 35.2029L81.4506 36.008ZM81.7866 27.104L82.2847 27.9711L82.2916 27.9672L82.2984 27.9631L81.7866 27.104ZM80.0346 28.952L80.918 29.4207L80.9218 29.4134L80.0346 28.952ZM79.4586 32.384L78.4636 32.4835L78.5729 33.5766L79.6509 33.3653L79.4586 32.384ZM89.0106 30.512L89.2029 31.4933L90.1404 31.3096L89.9997 30.3647L89.0106 30.512ZM88.2186 28.448L89.0506 27.8933L89.0506 27.8933L88.2186 28.448ZM86.5866 26.984L86.1063 27.8611L86.1144 27.8655L86.1226 27.8698L86.5866 26.984ZM84.7386 38.016C85.6746 38.016 86.5594 37.8503 87.3807 37.5064L86.6085 35.6616C86.0538 35.8937 85.4346 36.016 84.7386 36.016V38.016ZM87.391 37.5021C88.2385 37.1361 88.9556 36.5986 89.5253 35.8913L87.9678 34.6367C87.6096 35.0814 87.1587 35.4239 86.5982 35.6659L87.391 37.5021ZM87.9954 35.9241L88.6914 36.7161L90.1938 35.3959L89.4978 34.6039L87.9954 35.9241ZM88.6653 35.4268C88.2261 35.9695 87.6782 36.384 87.0065 36.6738L87.7987 38.5102C88.7589 38.096 89.5711 37.4865 90.2198 36.6852L88.6653 35.4268ZM87.0218 36.6673C86.3388 36.9486 85.5738 37.096 84.7146 37.096V39.096C85.8073 39.096 86.8344 38.9074 87.7833 38.5167L87.0218 36.6673ZM84.7146 37.096C83.617 37.096 82.6653 36.8583 81.8354 36.4032L80.8738 38.1568C82.0279 38.7897 83.3162 39.096 84.7146 39.096V37.096ZM81.8415 36.4065C81.021 35.9492 80.3836 35.3245 79.9144 34.5201L78.1868 35.5279C78.8376 36.6435 79.7361 37.5228 80.8677 38.1535L81.8415 36.4065ZM79.9206 34.531C79.4714 33.7383 79.2346 32.8158 79.2346 31.736H77.2346C77.2346 33.1202 77.5418 34.3897 78.1806 35.517L79.9206 34.531ZM79.2346 31.736C79.2346 30.6462 79.4599 29.7155 79.8849 28.9186L78.1202 27.9774C77.5213 29.1005 77.2346 30.3618 77.2346 31.736H79.2346ZM79.8788 28.9299C80.3216 28.1249 80.9229 27.5057 81.6923 27.0547L80.6809 25.3293C79.5943 25.9663 78.7396 26.8511 78.1264 27.9661L79.8788 28.9299ZM81.6923 27.0547C82.4539 26.6082 83.3246 26.376 84.3306 26.376V24.376C83.0006 24.376 81.7753 24.6878 80.6809 25.3293L81.6923 27.0547ZM84.3306 26.376C85.2547 26.376 86.0519 26.5913 86.7488 27.0043L87.7684 25.2837C86.7373 24.6727 85.5825 24.376 84.3306 24.376V26.376ZM86.7676 27.0152C87.4868 27.4205 88.0539 27.9853 88.4784 28.7281L90.2148 27.7359C89.6153 26.6867 88.7904 25.8595 87.7496 25.2728L86.7676 27.0152ZM88.4891 28.7465C88.9249 29.4729 89.1702 30.3007 89.2115 31.2514L91.2097 31.1646C91.155 29.9073 90.8243 28.7511 90.2041 27.7175L88.4891 28.7465ZM90.0192 30.2265L79.4352 32.2905L79.818 34.2535L90.402 32.1895L90.0192 30.2265ZM78.6597 33.5272C79.0187 34.8874 79.7518 35.9984 80.8574 36.8131L82.0438 35.2029C81.3254 34.6736 80.8425 33.9606 80.5935 33.0168L78.6597 33.5272ZM80.8574 36.8131C81.9632 37.6279 83.2741 38.016 84.7386 38.016V36.016C83.6431 36.016 82.762 35.7321 82.0438 35.2029L80.8574 36.8131ZM84.3306 25.432C83.2211 25.432 82.1937 25.6975 81.2748 26.2449L82.2984 27.9631C82.8835 27.6145 83.5521 27.432 84.3306 27.432V25.432ZM81.2885 26.2369C80.3638 26.7681 79.6479 27.5281 79.1474 28.4906L80.9218 29.4134C81.2533 28.7759 81.7053 28.3039 82.2847 27.9711L81.2885 26.2369ZM79.1512 28.4833C78.6488 29.4302 78.4106 30.491 78.4106 31.64H80.4106C80.4106 30.773 80.5884 30.0418 80.9179 29.4207L79.1512 28.4833ZM78.4106 31.64C78.4106 31.8659 78.4305 32.1527 78.4636 32.4835L80.4536 32.2845C80.4227 31.9753 80.4106 31.7661 80.4106 31.64H78.4106ZM79.6509 33.3653L89.2029 31.4933L88.8183 29.5307L79.2663 31.4027L79.6509 33.3653ZM89.9997 30.3647C89.8663 29.4691 89.5495 28.6416 89.0506 27.8933L87.3865 29.0027C87.7197 29.5024 87.9309 30.0509 88.0215 30.6593L89.9997 30.3647ZM89.0506 27.8933C88.5405 27.1281 87.8693 26.527 87.0506 26.0982L86.1226 27.8698C86.6479 28.145 87.0646 28.5199 87.3865 29.0027L89.0506 27.8933ZM87.0669 26.1069C86.2352 25.6514 85.3157 25.432 84.3306 25.432V27.432C85.0095 27.432 85.594 27.5806 86.1063 27.8611L87.0669 26.1069Z" fill="black" mask="url(#path-3-outside-1_1_2)"/>
<path d="M152.295 21.2V38H148.407V31.112H140.775V38H136.887V21.2H140.775V27.824H148.407V21.2H152.295ZM169.013 25.088V38H165.461V36.464C164.965 37.024 164.373 37.456 163.685 37.76C162.997 38.048 162.253 38.192 161.453 38.192C159.757 38.192 158.413 37.704 157.421 36.728C156.429 35.752 155.933 34.304 155.933 32.384V25.088H159.677V31.832C159.677 33.912 160.549 34.952 162.293 34.952C163.189 34.952 163.909 34.664 164.453 34.088C164.997 33.496 165.269 32.624 165.269 31.472V25.088H169.013ZM185.082 29.264C186.042 29.568 186.794 30.08 187.338 30.8C187.882 31.504 188.154 32.376 188.154 33.416C188.154 34.888 187.578 36.024 186.426 36.824C185.29 37.608 183.626 38 181.434 38H172.746V21.2H180.954C183.002 21.2 184.57 21.592 185.658 22.376C186.762 23.16 187.314 24.224 187.314 25.568C187.314 26.384 187.114 27.112 186.714 27.752C186.33 28.392 185.786 28.896 185.082 29.264ZM176.61 24.128V28.088H180.474C181.434 28.088 182.162 27.92 182.658 27.584C183.154 27.248 183.402 26.752 183.402 26.096C183.402 25.44 183.154 24.952 182.658 24.632C182.162 24.296 181.434 24.128 180.474 24.128H176.61ZM181.146 35.072C182.17 35.072 182.938 34.904 183.45 34.568C183.978 34.232 184.242 33.712 184.242 33.008C184.242 31.616 183.21 30.92 181.146 30.92H176.61V35.072H181.146Z" fill="#E7700D"/>
</svg>
